<svg width="567.429" height="499.061" viewBox="0 0 567.429 499.061" xmlns="http://www.w3.org/2000/svg" shape-rendering="crispEdges">
<title>
/home/alida/lab_elettronica/lab1/build/calibrazione.svg
</title>
<desc>
Creator: ROOT Version 6.32.06
CreationDate: Mon Nov 25 15:52:05 2024</desc>
<defs>
</defs>
<rect x="0.5" y="0" width="566.929" height="498.561" fill="white"/>
<rect x="6.16929" y="4.98561" width="555.591" height="488.59" fill="white"/>
<rect x="61.7284" y="53.8446" width="444.472" height="390.872" fill="white"/>
<rect x="61.7284" y="53.8446" width="444.472" height="390.872" fill="none" stroke="black"/>
<rect x="61.7284" y="53.8446" width="444.472" height="390.872" fill="white"/>
<rect x="61.7284" y="53.8446" width="444.472" height="390.872" fill="none" stroke="black"/>
<path d="M61.7284,444.716h 444.472" fill="none" stroke="black"/>
<path d="M61.7284,432.99v 11.7262" fill="none" stroke="black"/>
<path d="M71.7433,438.853v 5.86308" fill="none" stroke="black"/>
<path d="M81.7583,438.853v 5.86308" fill="none" stroke="black"/>
<path d="M91.7733,438.853v 5.86308" fill="none" stroke="black"/>
<path d="M101.788,438.853v 5.86308" fill="none" stroke="black"/>
<path d="M111.803,432.99v 11.7262" fill="none" stroke="black"/>
<path d="M121.818,438.853v 5.86308" fill="none" stroke="black"/>
<path d="M131.833,438.853v 5.86308" fill="none" stroke="black"/>
<path d="M141.848,438.853v 5.86308" fill="none" stroke="black"/>
<path d="M151.863,438.853v 5.86308" fill="none" stroke="black"/>
<path d="M161.878,432.99v 11.7262" fill="none" stroke="black"/>
<path d="M171.893,438.853v 5.86308" fill="none" stroke="black"/>
<path d="M181.908,438.853v 5.86308" fill="none" stroke="black"/>
<path d="M191.923,438.853v 5.86308" fill="none" stroke="black"/>
<path d="M201.938,438.853v 5.86308" fill="none" stroke="black"/>
<path d="M211.953,432.99v 11.7262" fill="none" stroke="black"/>
<path d="M221.968,438.853v 5.86308" fill="none" stroke="black"/>
<path d="M231.983,438.853v 5.86308" fill="none" stroke="black"/>
<path d="M241.998,438.853v 5.86308" fill="none" stroke="black"/>
<path d="M252.013,438.853v 5.86308" fill="none" stroke="black"/>
<path d="M262.028,432.99v 11.7262" fill="none" stroke="black"/>
<path d="M272.043,438.853v 5.86308" fill="none" stroke="black"/>
<path d="M282.058,438.853v 5.86308" fill="none" stroke="black"/>
<path d="M292.073,438.853v 5.86308" fill="none" stroke="black"/>
<path d="M302.088,438.853v 5.86308" fill="none" stroke="black"/>
<path d="M312.103,432.99v 11.7262" fill="none" stroke="black"/>
<path d="M322.118,438.853v 5.86308" fill="none" stroke="black"/>
<path d="M332.133,438.853v 5.86308" fill="none" stroke="black"/>
<path d="M342.148,438.853v 5.86308" fill="none" stroke="black"/>
<path d="M352.163,438.853v 5.86308" fill="none" stroke="black"/>
<path d="M362.178,432.99v 11.7262" fill="none" stroke="black"/>
<path d="M372.193,438.853v 5.86308" fill="none" stroke="black"/>
<path d="M382.208,438.853v 5.86308" fill="none" stroke="black"/>
<path d="M392.223,438.853v 5.86308" fill="none" stroke="black"/>
<path d="M402.238,438.853v 5.86308" fill="none" stroke="black"/>
<path d="M412.253,432.99v 11.7262" fill="none" stroke="black"/>
<path d="M422.268,438.853v 5.86308" fill="none" stroke="black"/>
<path d="M432.283,438.853v 5.86308" fill="none" stroke="black"/>
<path d="M442.298,438.853v 5.86308" fill="none" stroke="black"/>
<path d="M452.313,438.853v 5.86308" fill="none" stroke="black"/>
<path d="M462.328,432.99v 11.7262" fill="none" stroke="black"/>
<path d="M462.328,432.99v 11.7262" fill="none" stroke="black"/>
<path d="M472.343,438.853v 5.86308" fill="none" stroke="black"/>
<path d="M482.358,438.853v 5.86308" fill="none" stroke="black"/>
<path d="M492.373,438.853v 5.86308" fill="none" stroke="black"/>
<path d="M502.388,438.853v 5.86308" fill="none" stroke="black"/>
<text xml:space="preserve" x="57.2981" y="460.696" fill="black" font-size="16.1887" font-family="Helvetica">0
</text>
<text xml:space="preserve" x="98.8448" y="460.696" fill="black" font-size="16.1887" font-family="Helvetica">100
</text>
<text xml:space="preserve" x="148.806" y="460.696" fill="black" font-size="16.1887" font-family="Helvetica">200
</text>
<text xml:space="preserve" x="198.767" y="460.696" fill="black" font-size="16.1887" font-family="Helvetica">300
</text>
<text xml:space="preserve" x="248.729" y="460.696" fill="black" font-size="16.1887" font-family="Helvetica">400
</text>
<text xml:space="preserve" x="299.216" y="460.696" fill="black" font-size="16.1887" font-family="Helvetica">500
</text>
<text xml:space="preserve" x="349.177" y="460.696" fill="black" font-size="16.1887" font-family="Helvetica">600
</text>
<text xml:space="preserve" x="399.138" y="460.696" fill="black" font-size="16.1887" font-family="Helvetica">700
</text>
<text xml:space="preserve" x="449.1" y="460.696" fill="black" font-size="16.1887" font-family="Helvetica">800
</text>
<text xml:space="preserve" x="394.931" y="476.473" fill="black" font-size="16.1887" font-family="Helvetica">Multimetro (mV)
</text>
<path d="M61.7284,444.716v -390.872" fill="none" stroke="black"/>
<path d="M75.0625,410.89h -13.3342" fill="none" stroke="black"/>
<path d="M68.3954,402.276h -6.66709" fill="none" stroke="black"/>
<path d="M68.3954,393.661h -6.66709" fill="none" stroke="black"/>
<path d="M68.3954,385.046h -6.66709" fill="none" stroke="black"/>
<path d="M68.3954,376.432h -6.66709" fill="none" stroke="black"/>
<path d="M75.0625,367.817h -13.3342" fill="none" stroke="black"/>
<path d="M68.3954,359.202h -6.66709" fill="none" stroke="black"/>
<path d="M68.3954,350.588h -6.66709" fill="none" stroke="black"/>
<path d="M68.3954,341.973h -6.66709" fill="none" stroke="black"/>
<path d="M68.3954,333.358h -6.66709" fill="none" stroke="black"/>
<path d="M75.0625,324.744h -13.3342" fill="none" stroke="black"/>
<path d="M68.3954,316.129h -6.66709" fill="none" stroke="black"/>
<path d="M68.3954,307.514h -6.66709" fill="none" stroke="black"/>
<path d="M68.3954,298.9h -6.66709" fill="none" stroke="black"/>
<path d="M68.3954,290.285h -6.66709" fill="none" stroke="black"/>
<path d="M75.0625,281.671h -13.3342" fill="none" stroke="black"/>
<path d="M68.3954,273.056h -6.66709" fill="none" stroke="black"/>
<path d="M68.3954,264.441h -6.66709" fill="none" stroke="black"/>
<path d="M68.3954,255.827h -6.66709" fill="none" stroke="black"/>
<path d="M68.3954,247.212h -6.66709" fill="none" stroke="black"/>
<path d="M75.0625,238.597h -13.3342" fill="none" stroke="black"/>
<path d="M68.3954,229.983h -6.66709" fill="none" stroke="black"/>
<path d="M68.3954,221.368h -6.66709" fill="none" stroke="black"/>
<path d="M68.3954,212.753h -6.66709" fill="none" stroke="black"/>
<path d="M68.3954,204.139h -6.66709" fill="none" stroke="black"/>
<path d="M75.0625,195.524h -13.3342" fill="none" stroke="black"/>
<path d="M68.3954,186.909h -6.66709" fill="none" stroke="black"/>
<path d="M68.3954,178.295h -6.66709" fill="none" stroke="black"/>
<path d="M68.3954,169.68h -6.66709" fill="none" stroke="black"/>
<path d="M68.3954,161.065h -6.66709" fill="none" stroke="black"/>
<path d="M75.0625,152.451h -13.3342" fill="none" stroke="black"/>
<path d="M68.3954,143.836h -6.66709" fill="none" stroke="black"/>
<path d="M68.3954,135.222h -6.66709" fill="none" stroke="black"/>
<path d="M68.3954,126.607h -6.66709" fill="none" stroke="black"/>
<path d="M68.3954,117.992h -6.66709" fill="none" stroke="black"/>
<path d="M75.0625,109.378h -13.3342" fill="none" stroke="black"/>
<path d="M68.3954,100.763h -6.66709" fill="none" stroke="black"/>
<path d="M68.3954,92.1483h -6.66709" fill="none" stroke="black"/>
<path d="M68.3954,83.5337h -6.66709" fill="none" stroke="black"/>
<path d="M68.3954,74.9191h -6.66709" fill="none" stroke="black"/>
<path d="M75.0625,66.3044h -13.3342" fill="none" stroke="black"/>
<path d="M75.0625,410.89h -13.3342" fill="none" stroke="black"/>
<path d="M68.3954,419.505h -6.66709" fill="none" stroke="black"/>
<path d="M68.3954,428.119h -6.66709" fill="none" stroke="black"/>
<path d="M68.3954,436.734h -6.66709" fill="none" stroke="black"/>
<path d="M75.0625,66.3044h -13.3342" fill="none" stroke="black"/>
<path d="M68.3954,57.6898h -6.66709" fill="none" stroke="black"/>
<text xml:space="preserve" x="33.1063" y="416.519" fill="black" font-size="16.1887" font-family="Helvetica">100
</text>
<text xml:space="preserve" x="33.1063" y="373.395" fill="black" font-size="16.1887" font-family="Helvetica">200
</text>
<text xml:space="preserve" x="33.1063" y="330.27" fill="black" font-size="16.1887" font-family="Helvetica">300
</text>
<text xml:space="preserve" x="33.1063" y="287.672" fill="black" font-size="16.1887" font-family="Helvetica">400
</text>
<text xml:space="preserve" x="33.1063" y="244.547" fill="black" font-size="16.1887" font-family="Helvetica">500
</text>
<text xml:space="preserve" x="33.1063" y="201.423" fill="black" font-size="16.1887" font-family="Helvetica">600
</text>
<text xml:space="preserve" x="33.1063" y="158.298" fill="black" font-size="16.1887" font-family="Helvetica">700
</text>
<text xml:space="preserve" x="33.1063" y="115.174" fill="black" font-size="16.1887" font-family="Helvetica">800
</text>
<text xml:space="preserve" x="33.1063" y="72.0494" fill="black" font-size="16.1887" font-family="Helvetica">900
</text>
<g transform="rotate(-90,20.4845,184.068)">
<text xml:space="preserve" x="20.4845" y="184.068" fill="black" font-size="16.1887" font-family="Helvetica">Oscilloscopio (mV)
</text>
</g>
<g stroke="black" stroke-width="1" fill="none">
<line x1="463.229" y1="109.378" x2="467.436" y2="109.378"/><line x1="465.333" y1="107.274" x2="465.333" y2="111.481"/><line x1="463.845" y1="107.89" x2="466.82" y2="110.865"/><line x1="463.845" y1="110.865" x2="466.82" y2="107.89"/>
<line x1="421.667" y1="143.836" x2="425.874" y2="143.836"/><line x1="423.77" y1="141.733" x2="423.77" y2="145.94"/><line x1="422.283" y1="142.349" x2="425.258" y2="145.323"/><line x1="422.283" y1="145.323" x2="425.258" y2="142.349"/>
<line x1="403.64" y1="161.065" x2="407.847" y2="161.065"/><line x1="405.743" y1="158.962" x2="405.743" y2="163.169"/><line x1="404.256" y1="159.578" x2="407.231" y2="162.553"/><line x1="404.256" y1="162.553" x2="407.231" y2="159.578"/>
<line x1="346.604" y1="204.139" x2="350.812" y2="204.139"/><line x1="348.708" y1="202.035" x2="348.708" y2="206.242"/><line x1="347.221" y1="202.651" x2="350.195" y2="205.626"/><line x1="347.221" y1="205.626" x2="350.195" y2="202.651"/>
<line x1="316.81" y1="229.983" x2="321.017" y2="229.983"/><line x1="318.913" y1="227.879" x2="318.913" y2="232.086"/><line x1="317.426" y1="228.495" x2="320.401" y2="231.47"/><line x1="317.426" y1="231.47" x2="320.401" y2="228.495"/>
<line x1="278.002" y1="264.441" x2="282.209" y2="264.441"/><line x1="280.105" y1="262.338" x2="280.105" y2="266.545"/><line x1="278.618" y1="262.954" x2="281.593" y2="265.928"/><line x1="278.618" y1="265.928" x2="281.593" y2="262.954"/>
<line x1="229.679" y1="307.514" x2="233.887" y2="307.514"/><line x1="231.783" y1="305.411" x2="231.783" y2="309.618"/><line x1="230.296" y1="306.027" x2="233.27" y2="309.002"/><line x1="230.296" y1="309.002" x2="233.27" y2="306.027"/>
<line x1="204.091" y1="329.051" x2="208.298" y2="329.051"/><line x1="206.195" y1="326.947" x2="206.195" y2="331.155"/><line x1="204.707" y1="327.564" x2="207.682" y2="330.538"/><line x1="204.707" y1="330.538" x2="207.682" y2="327.564"/>
<line x1="184.412" y1="346.28" x2="188.619" y2="346.28"/><line x1="186.515" y1="344.177" x2="186.515" y2="348.384"/><line x1="185.028" y1="344.793" x2="188.002" y2="347.768"/><line x1="185.028" y1="347.768" x2="188.002" y2="344.793"/>
<line x1="159.975" y1="367.817" x2="164.182" y2="367.817"/><line x1="162.079" y1="365.713" x2="162.079" y2="369.921"/><line x1="160.591" y1="366.33" x2="163.566" y2="369.304"/><line x1="160.591" y1="369.304" x2="163.566" y2="366.33"/>
<line x1="136.089" y1="389.354" x2="140.296" y2="389.354"/><line x1="138.193" y1="387.25" x2="138.193" y2="391.457"/><line x1="136.706" y1="387.866" x2="139.68" y2="390.841"/><line x1="136.706" y1="390.841" x2="139.68" y2="387.866"/>
<line x1="108.999" y1="410.89" x2="113.206" y2="410.89"/><line x1="111.102" y1="408.787" x2="111.102" y2="412.994"/><line x1="109.615" y1="409.403" x2="112.59" y2="412.377"/><line x1="109.615" y1="412.377" x2="112.59" y2="409.403"/>
<line x1="99.234" y1="419.505" x2="103.441" y2="419.505"/><line x1="101.338" y1="417.401" x2="101.338" y2="421.608"/><line x1="99.8504" y1="418.018" x2="102.825" y2="420.992"/><line x1="99.8504" y1="420.992" x2="102.825" y2="418.018"/>
<line x1="84.0613" y1="432.427" x2="88.2686" y2="432.427"/><line x1="86.1649" y1="430.323" x2="86.1649" y2="434.53"/><line x1="84.6777" y1="430.939" x2="87.6522" y2="433.914"/><line x1="84.6777" y1="433.914" x2="87.6522" y2="430.939"/>
<line x1="72.3438" y1="442.764" x2="76.551" y2="442.764"/><line x1="74.4474" y1="440.661" x2="74.4474" y2="444.868"/><line x1="72.9601" y1="441.277" x2="75.9347" y2="444.252"/><line x1="72.9601" y1="444.252" x2="75.9347" y2="441.277"/>
</g>
<path d="M72.0709,444.716l 0.769246, -0.66237" fill="none" stroke="#00ff00" stroke-width="2"/>
<path d="M72.8402,444.054l 4.44472, -3.82719l 4.44472, -3.82719l 4.44472, -3.82719l 4.44472, -3.82719l 4.44472, -3.82719l 4.44472, -3.82719l 4.44472, -3.82719l 4.44472, -3.82719l 4.44472, -3.82719l 4.44472, -3.82719l 4.44472, -3.82719l 4.44472,
 -3.82719l 4.44472, -3.82719l 4.44472, -3.82719l 4.44472, -3.82719l 4.44472, -3.82719l 4.44472, -3.82719l 4.44472, -3.82719l 4.44472, -3.82719l 4.44472, -3.82719l 4.44472, -3.82719l 4.44472, -3.82719l 4.44472, -3.82719l 4.44472, -3.82719l 4.44472,
 -3.82719l 4.44472, -3.82719l 4.44472, -3.82719l 4.44472, -3.82719l 4.44472, -3.82719l 4.44472, -3.82719l 4.44472, -3.82719l 4.44472, -3.82719l 4.44472, -3.82719l 4.44472, -3.82719l 4.44472, -3.82719l 4.44472, -3.82719l 4.44472, -3.82719l 4.44472,
 -3.82719l 4.44472, -3.82719l 4.44472, -3.82719l 4.44472, -3.82719l 4.44472, -3.82719l 4.44472, -3.82719l 4.44472, -3.82719l 4.44472, -3.82719l 4.44472, -3.82719l 4.44472, -3.82719l 4.44472, -3.82719" fill="none" stroke="#00ff00" stroke-width="2"/>
<path d="M286.187,260.349l 4.44472, -3.82719l 4.44472, -3.82719l 4.44472, -3.82719l 4.44472, -3.82719l 4.44472, -3.82719l 4.44472, -3.82719l 4.44472, -3.82719l 4.44472, -3.82719l 4.44472, -3.82719l 4.44472, -3.82719l 4.44472, -3.82719l 4.44472,
 -3.82719l 4.44472, -3.82719l 4.44472, -3.82719l 4.44472, -3.82719l 4.44472, -3.82719l 4.44472, -3.82719l 4.44472, -3.82719l 4.44472, -3.82719l 4.44472, -3.82719l 4.44472, -3.82719l 4.44472, -3.82719l 4.44472, -3.82719l 4.44472, -3.82719l 4.44472,
 -3.82719l 4.44472, -3.82719l 4.44472, -3.82719l 4.44472, -3.82719l 4.44472, -3.82719l 4.44472, -3.82719l 4.44472, -3.82719l 4.44472, -3.82719l 4.44472, -3.82719l 4.44472, -3.82719l 4.44472, -3.82719l 4.44472, -3.82719l 4.44472, -3.82719l 4.44472,
 -3.82719l 4.44472, -3.82719l 4.44472, -3.82719l 4.44472, -3.82719l 4.44472, -3.82719l 4.44472, -3.82719l 4.44472, -3.82719l 4.44472, -3.82719l 4.44472, -3.82719l 4.44472, -3.82719l 4.44472, -3.82719l 4.44472, -3.82719" fill="none" stroke="#00ff00"
 stroke-width="2"/>
<rect x="349.703" y="34.7099" width="199.845" height="51.539" fill="white"/>
<path d="M349.703,86.249h 199.845" fill="none" stroke="black"/>
<path d="M549.548,86.249v -51.539" fill="none" stroke="black"/>
<path d="M549.548,34.7099h -199.845" fill="none" stroke="black"/>
<path d="M349.703,34.7099v 51.539" fill="none" stroke="black"/>
<text xml:space="preserve" x="370.739" y="47.3317" fill="black" font-size="12.5265" font-family="Helvetica"> / ndf 
</text>
<text xml:space="preserve" x="366.006" y="43.1245" fill="black" font-size="8.51767" font-family="Helvetica">2
</text>
<text xml:space="preserve" x="359.695" y="47.3317" fill="black" font-size="12.5265" font-family="Times">&#0967;
</text>
<text xml:space="preserve" x="475.921" y="47.8577" fill="black" font-size="12.5265" font-family="Helvetica"> 0.3358 / 13
</text>
<text xml:space="preserve" x="359.695" y="64.1608" fill="black" font-size="12.5265" font-family="Helvetica">Slope    
</text>
<text xml:space="preserve" x="492.75" y="65.2126" fill="black" font-size="12.5265" font-family="Helvetica"> 0.01875
</text>
<text xml:space="preserve" x="485.913" y="65.2126" fill="black" font-size="12.5265" font-family="Times">&#0177;
</text>
<text xml:space="preserve" x="443.841" y="65.2126" fill="black" font-size="12.5265" font-family="Helvetica"> 1.001 
</text>
<text xml:space="preserve" x="359.695" y="82.5676" fill="black" font-size="12.5265" font-family="Helvetica">Offset   
</text>
<text xml:space="preserve" x="508.001" y="82.5676" fill="black" font-size="12.5265" font-family="Helvetica"> 1.841
</text>
<text xml:space="preserve" x="501.165" y="82.5676" fill="black" font-size="12.5265" font-family="Times">&#0177;
</text>
<text xml:space="preserve" x="450.677" y="82.5676" fill="black" font-size="12.5265" font-family="Helvetica"> 0.7924 
</text>
<path d="M465.333,109.378h -1.60691" fill="none" stroke="black"/>
<path d="M465.333,109.378h 1.60691" fill="none" stroke="black"/>
<path d="M463.726,110.429v -2.10363" fill="none" stroke="black"/>
<path d="M466.94,110.429v -2.10363" fill="none" stroke="black"/>
<path d="M465.333,109.378v -20.0926" fill="none" stroke="black"/>
<path d="M465.333,109.378v 20.0926" fill="none" stroke="black"/>
<path d="M464.281,89.285h 2.10363" fill="none" stroke="black"/>
<path d="M464.281,129.47h 2.10363" fill="none" stroke="black"/>
<path d="M423.77,143.836h -1.54456" fill="none" stroke="black"/>
<path d="M423.77,143.836h 1.54456" fill="none" stroke="black"/>
<path d="M422.226,144.888v -2.10363" fill="none" stroke="black"/>
<path d="M425.315,144.888v -2.10363" fill="none" stroke="black"/>
<path d="M423.77,143.836v -19.5808" fill="none" stroke="black"/>
<path d="M423.77,143.836v 19.5808" fill="none" stroke="black"/>
<path d="M422.719,124.255h 2.10363" fill="none" stroke="black"/>
<path d="M422.719,163.417h 2.10363" fill="none" stroke="black"/>
<path d="M405.743,161.065h -1.51752" fill="none" stroke="black"/>
<path d="M405.743,161.065h 1.51752" fill="none" stroke="black"/>
<path d="M404.226,162.117v -2.10363" fill="none" stroke="black"/>
<path d="M407.261,162.117v -2.10363" fill="none" stroke="black"/>
<path d="M405.743,161.065v -19.3406" fill="none" stroke="black"/>
<path d="M405.743,161.065v 19.3406" fill="none" stroke="black"/>
<path d="M404.692,141.725h 2.10363" fill="none" stroke="black"/>
<path d="M404.692,180.406h 2.10363" fill="none" stroke="black"/>
<path d="M348.708,204.139h -0.53062" fill="none" stroke="black"/>
<path d="M348.708,204.139h 0.53062" fill="none" stroke="black"/>
<path d="M348.177,205.191v -2.10363" fill="none" stroke="black"/>
<path d="M349.239,205.191v -2.10363" fill="none" stroke="black"/>
<path d="M348.708,204.139v -11.4185" fill="none" stroke="black"/>
<path d="M348.708,204.139v 11.4185" fill="none" stroke="black"/>
<path d="M347.656,192.72h 2.10363" fill="none" stroke="black"/>
<path d="M347.656,215.557h 2.10363" fill="none" stroke="black"/>
<path d="M318.913,229.983h -0.485928" fill="none" stroke="black"/>
<path d="M318.913,229.983h 0.485928" fill="none" stroke="black"/>
<path d="M318.428,231.034v -2.10363" fill="none" stroke="black"/>
<path d="M319.399,231.034v -2.10363" fill="none" stroke="black"/>
<path d="M318.913,229.983v -10.9253" fill="none" stroke="black"/>
<path d="M318.913,229.983v 10.9253" fill="none" stroke="black"/>
<path d="M317.862,219.057h 2.10363" fill="none" stroke="black"/>
<path d="M317.862,240.908h 2.10363" fill="none" stroke="black"/>
<path d="M280.105,264.441h -0.427715" fill="none" stroke="black"/>
<path d="M280.105,264.441h 0.427715" fill="none" stroke="black"/>
<path d="M279.678,265.493v -2.10363" fill="none" stroke="black"/>
<path d="M280.533,265.493v -2.10363" fill="none" stroke="black"/>
<path d="M280.105,264.441v -10.3218" fill="none" stroke="black"/>
<path d="M280.105,264.441v 10.3218" fill="none" stroke="black"/>
<path d="M279.054,254.119h 2.10363" fill="none" stroke="black"/>
<path d="M279.054,274.763h 2.10363" fill="none" stroke="black"/>
<path d="M231.783,307.514h -0.355232" fill="none" stroke="black"/>
<path d="M231.783,307.514h 0.355232" fill="none" stroke="black"/>
<path d="M231.428,308.566v -2.10363" fill="none" stroke="black"/>
<path d="M232.138,308.566v -2.10363" fill="none" stroke="black"/>
<path d="M231.783,307.514v -9.6703" fill="none" stroke="black"/>
<path d="M231.783,307.514v 9.6703" fill="none" stroke="black"/>
<path d="M230.731,297.844h 2.10363" fill="none" stroke="black"/>
<path d="M230.731,317.185h 2.10363" fill="none" stroke="black"/>
<path d="M206.195,329.051h -0.316849" fill="none" stroke="black"/>
<path d="M206.195,329.051h 0.316849" fill="none" stroke="black"/>
<path d="M205.878,330.103v -2.10363" fill="none" stroke="black"/>
<path d="M206.512,330.103v -2.10363" fill="none" stroke="black"/>
<path d="M206.195,329.051v -5.70927" fill="none" stroke="black"/>
<path d="M206.195,329.051v 5.70927" fill="none" stroke="black"/>
<path d="M205.143,323.342h 2.10363" fill="none" stroke="black"/>
<path d="M205.143,334.76h 2.10363" fill="none" stroke="black"/>
<path d="M186.515,346.28h -0.28733" fill="none" stroke="black"/>
<path d="M186.515,346.28h 0.28733" fill="none" stroke="black"/>
<path d="M186.228,347.332v -2.10363" fill="none" stroke="black"/>
<path d="M186.803,347.332v -2.10363" fill="none" stroke="black"/>
<path d="M186.515,346.28v -5.38415" fill="none" stroke="black"/>
<path d="M186.515,346.28v 5.38415" fill="none" stroke="black"/>
<path d="M185.463,340.896h 2.10363" fill="none" stroke="black"/>
<path d="M185.463,351.664h 2.10363" fill="none" stroke="black"/>
<path d="M162.079,367.817h -0.250675" fill="none" stroke="black"/>
<path d="M162.079,367.817h 0.250675" fill="none" stroke="black"/>
<path d="M161.828,368.869v -2.10363" fill="none" stroke="black"/>
<path d="M162.329,368.869v -2.10363" fill="none" stroke="black"/>
<path d="M162.079,367.817v -5.02316" fill="none" stroke="black"/>
<path d="M162.079,367.817v 5.02316" fill="none" stroke="black"/>
<path d="M161.027,362.794h 2.10363" fill="none" stroke="black"/>
<path d="M161.027,372.84h 2.10363" fill="none" stroke="black"/>
<path d="M138.193,389.354h -0.214847" fill="none" stroke="black"/>
<path d="M138.193,389.354h 0.214847" fill="none" stroke="black"/>
<path d="M137.978,390.405v -2.10363" fill="none" stroke="black"/>
<path d="M138.408,390.405v -2.10363" fill="none" stroke="black"/>
<path d="M138.193,389.354v -4.72335" fill="none" stroke="black"/>
<path d="M138.193,389.354v 4.72335" fill="none" stroke="black"/>
<path d="M137.141,384.63h 2.10363" fill="none" stroke="black"/>
<path d="M137.141,394.077h 2.10363" fill="none" stroke="black"/>
<path d="M111.102,410.89h -0.174211" fill="none" stroke="black"/>
<path d="M111.102,410.89h 0.174211" fill="none" stroke="black"/>
<path d="M110.928,411.942v -2.10363" fill="none" stroke="black"/>
<path d="M111.276,411.942v -2.10363" fill="none" stroke="black"/>
<path d="M111.102,410.89v -2.15366" fill="none" stroke="black"/>
<path d="M111.102,410.89v 2.15366" fill="none" stroke="black"/>
<path d="M110.05,408.736h 2.10363" fill="none" stroke="black"/>
<path d="M110.05,413.044h 2.10363" fill="none" stroke="black"/>
<path d="M101.338,419.505h -0.159564" fill="none" stroke="black"/>
<path d="M101.338,419.505h 0.159564" fill="none" stroke="black"/>
<path d="M101.178,420.557v -2.10363" fill="none" stroke="black"/>
<path d="M101.497,420.557v -2.10363" fill="none" stroke="black"/>
<path d="M101.338,419.505v -2.00926" fill="none" stroke="black"/>
<path d="M101.338,419.505v 2.00926" fill="none" stroke="black"/>
<path d="M100.286,417.496h 2.10363" fill="none" stroke="black"/>
<path d="M100.286,421.514h 2.10363" fill="none" stroke="black"/>
<path d="M86.1649,432.427h -0.136805" fill="none" stroke="black"/>
<path d="M86.1649,432.427h 0.136805" fill="none" stroke="black"/>
<path d="M86.0281,433.479v -2.10363" fill="none" stroke="black"/>
<path d="M86.3018,433.479v -2.10363" fill="none" stroke="black"/>
<path d="M86.1649,432.427v -1.07683" fill="none" stroke="black"/>
<path d="M86.1649,432.427v 1.07683" fill="none" stroke="black"/>
<path d="M85.1131,431.35h 2.10363" fill="none" stroke="black"/>
<path d="M85.1131,433.504h 2.10363" fill="none" stroke="black"/>
<path d="M74.4474,442.764h -0.119229" fill="none" stroke="black"/>
<path d="M74.4474,442.764h 0.119229" fill="none" stroke="black"/>
<path d="M74.3282,443.816v -2.10363" fill="none" stroke="black"/>
<path d="M74.5666,443.816v -2.10363" fill="none" stroke="black"/>
<path d="M74.4474,442.764v -0.924661" fill="none" stroke="black"/>
<path d="M74.4474,442.764v 0.924661" fill="none" stroke="black"/>
<path d="M73.3956,441.84h 2.10363" fill="none" stroke="black"/>
<path d="M73.3956,443.689h 2.10363" fill="none" stroke="black"/>
<rect x="349.703" y="34.7099" width="199.845" height="51.539" fill="white"/>
<path d="M349.703,86.249h 199.845" fill="none" stroke="black"/>
<path d="M549.548,86.249v -51.539" fill="none" stroke="black"/>
<path d="M549.548,34.7099h -199.845" fill="none" stroke="black"/>
<path d="M349.703,34.7099v 51.539" fill="none" stroke="black"/>
<text xml:space="preserve" x="370.739" y="47.3317" fill="black" font-size="12.5265" font-family="Helvetica"> / ndf 
</text>
<text xml:space="preserve" x="366.006" y="43.1245" fill="black" font-size="8.51767" font-family="Helvetica">2
</text>
<text xml:space="preserve" x="359.695" y="47.3317" fill="black" font-size="12.5265" font-family="Times">&#0967;
</text>
<text xml:space="preserve" x="475.921" y="47.8577" fill="black" font-size="12.5265" font-family="Helvetica"> 0.3358 / 13
</text>
<text xml:space="preserve" x="359.695" y="64.1608" fill="black" font-size="12.5265" font-family="Helvetica">Slope    
</text>
<text xml:space="preserve" x="492.75" y="65.2126" fill="black" font-size="12.5265" font-family="Helvetica"> 0.01875
</text>
<text xml:space="preserve" x="485.913" y="65.2126" fill="black" font-size="12.5265" font-family="Times">&#0177;
</text>
<text xml:space="preserve" x="443.841" y="65.2126" fill="black" font-size="12.5265" font-family="Helvetica"> 1.001 
</text>
<text xml:space="preserve" x="359.695" y="82.5676" fill="black" font-size="12.5265" font-family="Helvetica">Offset   
</text>
<text xml:space="preserve" x="508.001" y="82.5676" fill="black" font-size="12.5265" font-family="Helvetica"> 1.841
</text>
<text xml:space="preserve" x="501.165" y="82.5676" fill="black" font-size="12.5265" font-family="Times">&#0177;
</text>
<text xml:space="preserve" x="450.677" y="82.5676" fill="black" font-size="12.5265" font-family="Helvetica"> 0.7924 
</text>
<text xml:space="preserve" x="136.71" y="25.7695" fill="black" font-size="17.8694" font-family="Helvetica">Calibrazione multimetro-oscilloscopio
</text></svg>
